<?xml version="1.0" encoding="UTF-8" ?>
<svg width="512px" height="512px" fill="currentColor" viewBox="0 0 512 512" version="1.1" xmlns="http://www.w3.org/2000/svg">
<path d=" M 178.49 0.00 L 205.42 0.00 C 241.52 1.55 277.79 7.35 311.52 20.71 C 328.25 27.44 344.50 35.96 358.27 47.74 C 368.61 56.70 377.70 67.76 381.84 81.00 C 386.04 94.30 384.27 109.22 377.43 121.34 C 369.79 135.19 357.61 145.96 344.50 154.51 C 317.24 171.97 285.68 181.51 254.01 187.03 C 232.87 190.58 211.41 192.33 189.97 192.00 C 160.35 192.10 130.67 188.48 102.00 180.99 C 78.93 174.79 56.27 166.01 36.44 152.49 C 23.19 143.33 10.96 131.67 4.31 116.75 C 2.01 111.60 0.63 106.09 0.00 100.49 L 0.00 91.49 C 0.69 85.17 2.43 78.96 5.23 73.25 C 13.35 56.84 27.82 44.58 43.17 35.14 C 64.91 21.97 89.26 13.65 113.97 8.11 C 135.16 3.32 156.82 1.00 178.49 0.00 M 177.00 32.00 C 177.00 35.73 176.99 39.46 177.02 43.19 C 169.36 43.94 161.66 44.37 154.08 45.73 C 141.76 47.73 129.10 51.19 119.34 59.34 C 114.80 63.16 111.00 69.02 112.30 75.18 C 113.38 81.00 118.03 85.26 122.87 88.20 C 133.52 94.71 146.00 97.02 158.09 99.29 C 176.83 102.83 195.90 104.43 214.52 108.57 C 218.56 109.66 223.38 110.54 225.88 114.28 C 227.76 117.08 226.31 120.95 223.70 122.75 C 216.63 127.92 207.49 128.48 199.05 128.94 C 187.30 129.17 175.21 129.03 164.01 125.04 C 158.09 122.96 152.54 119.13 149.91 113.25 C 134.41 114.82 118.92 116.41 103.44 118.10 C 107.64 124.92 113.91 130.28 121.03 133.86 C 138.32 142.61 158.01 144.32 177.04 145.61 C 176.97 150.41 177.01 155.20 177.00 160.00 C 187.08 160.00 197.16 160.01 207.24 159.99 C 207.28 155.11 207.19 150.22 207.31 145.33 C 221.36 144.85 235.46 143.36 249.09 139.82 C 257.96 137.35 266.92 134.01 273.94 127.85 C 278.07 124.17 281.09 118.75 280.48 113.07 C 279.99 107.35 275.75 102.85 271.14 99.86 C 261.15 93.37 249.31 90.69 237.76 88.48 C 218.17 84.46 198.22 82.55 178.64 78.49 C 174.26 77.37 169.19 76.62 166.06 73.03 C 163.77 70.14 165.41 66.02 168.32 64.28 C 175.26 59.74 183.88 59.13 191.95 58.76 C 206.16 58.46 221.72 61.74 231.49 72.90 C 245.22 70.56 258.99 68.40 272.72 66.06 C 268.23 60.06 261.84 55.76 255.07 52.72 C 240.05 45.99 223.43 44.40 207.21 43.19 C 207.28 39.46 207.25 35.73 207.25 32.01 C 197.16 32.00 187.08 32.00 177.00 32.00 Z" />
<path d=" M 2.98 143.11 C 19.85 162.65 42.72 175.99 66.41 185.62 C 93.54 196.56 122.40 202.78 151.44 205.81 C 188.07 209.52 225.23 208.20 261.43 201.45 C 238.97 215.25 219.50 233.80 204.92 255.78 C 160.06 257.35 114.43 251.69 72.45 235.29 C 53.36 227.60 34.72 217.60 20.04 202.94 C 9.57 192.69 1.43 179.34 0.00 164.51 L 0.00 155.56 C 0.55 151.32 1.57 147.14 2.98 143.11 Z" />
<path d=" M 336.27 176.81 C 352.81 168.01 368.66 157.36 381.01 143.11 C 385.26 154.49 385.15 167.49 380.34 178.68 C 365.81 176.02 350.97 175.71 336.27 176.81 Z" />
<path d=" M 333.90 192.87 C 358.54 190.22 383.84 192.97 407.13 201.58 C 433.81 211.29 457.70 228.37 475.73 250.29 C 497.42 276.41 510.15 309.61 512.00 343.48 L 512.00 360.45 C 510.18 394.61 497.23 428.08 475.25 454.33 C 454.64 479.23 426.31 497.66 395.15 506.28 C 383.86 509.49 372.20 511.18 360.51 512.00 L 343.47 512.00 C 319.96 510.62 296.71 504.29 275.99 493.05 C 241.62 474.63 214.47 443.22 201.33 406.50 C 189.22 373.03 188.76 335.51 199.89 301.71 C 209.21 273.36 226.70 247.77 249.69 228.75 C 273.46 208.92 303.11 196.22 333.90 192.87 M 340.00 224.00 C 339.96 231.51 340.08 239.02 339.94 246.52 C 325.13 248.48 309.97 254.62 300.85 266.96 C 290.09 281.01 285.85 299.66 289.08 317.02 C 291.67 332.39 301.58 346.34 315.26 353.82 C 332.84 364.13 353.43 367.67 371.04 377.86 C 378.67 381.95 380.99 391.53 379.39 399.52 C 377.90 407.77 371.41 415.02 363.11 416.77 C 352.31 419.18 339.90 418.17 330.95 411.12 C 323.43 405.07 319.92 395.50 318.36 386.25 C 306.01 389.55 293.62 392.72 281.25 395.94 C 284.21 409.10 289.58 422.14 298.92 432.07 C 309.38 443.64 324.72 449.60 340.00 451.08 C 340.01 460.64 339.98 470.20 340.02 479.76 C 348.01 479.74 356.00 479.75 363.99 479.75 C 364.02 470.14 363.98 460.52 364.01 450.90 C 380.69 449.34 397.82 443.03 408.75 429.82 C 421.14 415.51 424.92 395.35 421.83 377.02 C 419.21 361.93 409.45 348.41 396.20 340.82 C 384.08 333.88 370.95 329.00 357.89 324.17 C 350.69 321.31 343.32 318.56 336.94 314.09 C 332.19 310.73 330.10 304.67 330.45 299.01 C 330.15 290.09 336.47 281.57 344.93 278.94 C 352.98 276.42 362.29 277.75 369.00 282.98 C 376.34 288.66 380.48 297.35 383.58 305.88 C 394.57 301.27 405.64 296.85 416.62 292.20 C 413.64 282.08 408.94 272.29 401.75 264.47 C 392.16 253.89 378.21 248.01 364.16 246.57 C 363.79 239.05 364.10 231.52 364.00 224.00 C 356.00 224.00 348.00 224.00 340.00 224.00 Z" />
<path d=" M 2.98 207.11 C 22.30 229.41 49.15 243.64 76.58 253.48 C 114.71 266.88 155.39 272.20 195.71 271.79 C 187.95 286.89 182.36 303.10 179.23 319.79 C 140.71 318.48 101.95 311.83 66.36 296.67 C 48.84 289.08 31.92 279.24 18.55 265.43 C 8.85 255.39 1.34 242.60 0.00 228.49 L 0.00 219.57 C 0.54 215.32 1.56 211.15 2.98 207.11 Z" />
<path d=" M 2.99 271.10 C 18.85 289.48 40.14 302.32 62.29 311.73 C 98.52 326.93 137.82 333.73 176.94 335.27 C 175.39 351.45 176.23 367.79 179.09 383.78 C 141.11 382.48 102.91 375.99 67.73 361.26 C 49.73 353.58 32.29 343.63 18.59 329.46 C 8.85 319.42 1.34 306.61 0.00 292.47 L 0.00 283.58 C 0.54 279.33 1.56 275.14 2.99 271.10 Z" />
<path d=" M 2.99 335.10 C 19.55 354.29 41.95 367.44 65.18 376.97 C 102.45 392.04 142.76 398.54 182.82 399.51 C 187.65 416.54 195.04 432.82 204.66 447.68 C 191.32 448.38 177.92 448.07 164.59 447.17 C 131.20 444.71 97.84 438.14 66.93 425.02 C 49.64 417.51 32.83 407.96 19.52 394.42 C 9.30 384.25 1.39 371.07 0.00 356.49 L 0.00 347.58 C 0.54 343.32 1.56 339.14 2.99 335.10 Z" />
<path d=" M 2.98 399.11 C 16.15 414.46 33.24 425.93 51.25 434.87 C 78.61 448.22 108.40 456.03 138.46 460.25 C 164.03 463.80 189.96 464.67 215.72 462.97 C 229.54 479.77 246.42 494.03 265.32 504.83 C 245.61 509.03 225.51 511.03 205.40 512.00 L 178.58 512.00 C 153.27 510.89 127.98 507.78 103.44 501.36 C 77.60 494.53 52.09 484.57 30.66 468.30 C 15.44 456.60 1.90 440.29 0.00 420.49 L 0.00 411.59 C 0.54 407.34 1.56 403.15 2.98 399.11 Z" />
</svg>
