<svg width="512px" height="512px" viewBox="0 0 512 512" version="1.1" fill="currentColor" xmlns="http://www.w3.org/2000/svg">
  <path d=" M 321.97 68.95 C 323.91 68.10 325.78 66.56 327.99 66.70 C 330.76 67.39 332.12 70.16 334.04 72.02 C 366.94 106.78 399.79 141.58 432.70 176.33 C 433.83 177.63 435.40 179.02 434.95 180.96 C 434.36 183.80 431.02 184.22 428.87 185.41 C 432.05 188.79 435.35 192.06 438.37 195.59 C 439.87 197.27 439.16 200.24 437.08 201.07 C 433.50 203.00 429.77 204.61 426.16 206.45 C 429.86 210.21 433.39 214.14 437.06 217.93 C 438.02 219.09 439.51 220.29 439.19 222.00 C 439.13 223.94 437.23 224.89 435.79 225.75 C 406.96 240.55 381.67 261.53 359.57 285.09 C 378.18 290.71 396.35 299.88 409.19 314.83 C 420.12 327.42 426.45 343.59 428.17 360.09 C 430.48 380.34 426.76 400.73 421.05 420.12 C 416.10 435.04 400.96 446.40 385.00 445.17 C 375.32 444.74 366.31 438.01 363.32 428.78 C 359.94 419.54 362.45 409.61 364.80 400.45 C 355.12 401.38 345.66 394.40 343.21 385.09 C 341.91 380.86 342.91 376.44 343.14 372.14 C 339.55 370.81 335.79 369.55 332.90 366.92 C 327.54 362.03 324.53 354.34 326.16 347.15 C 328.02 337.85 331.03 328.44 329.67 318.85 C 319.76 330.61 310.41 342.84 300.77 354.83 C 293.03 364.38 285.92 374.52 277.05 383.09 C 251.19 408.23 216.51 423.36 180.95 428.07 C 177.99 428.40 175.01 428.94 172.03 428.67 C 170.28 427.99 169.29 426.22 168.03 424.93 C 136.82 388.82 105.54 352.78 74.31 316.68 C 72.74 315.22 72.18 312.42 74.02 310.94 C 77.89 308.24 82.38 306.62 86.66 304.69 C 82.86 300.30 78.87 296.07 75.26 291.54 C 73.60 289.50 75.04 286.04 77.71 285.87 C 83.20 284.79 88.70 283.71 94.05 282.06 C 90.03 277.04 85.62 272.32 81.77 267.16 C 80.36 265.35 81.51 262.31 83.73 261.82 C 120.99 255.30 155.18 235.56 182.08 209.32 C 179.77 207.21 175.34 203.86 178.62 200.62 C 183.65 196.91 188.71 193.15 192.50 188.09 C 176.36 186.84 159.91 193.38 144.08 187.87 C 134.91 184.16 132.29 170.71 139.37 163.77 C 128.46 163.20 117.69 160.97 107.32 157.58 C 101.09 155.19 97.64 147.37 100.28 141.18 C 102.18 135.33 107.92 132.32 112.97 129.61 C 102.27 127.24 91.78 123.43 82.62 117.35 C 77.52 114.06 74.40 108.03 74.48 101.98 C 74.39 93.35 81.35 85.22 89.89 83.94 C 114.05 80.35 139.42 81.61 162.29 90.72 C 188.49 100.86 210.10 121.93 221.51 147.53 C 222.65 146.68 223.75 145.74 225.00 145.06 C 227.10 144.26 228.85 145.98 230.59 146.85 C 243.16 129.93 258.05 114.83 274.02 101.11 C 288.75 88.67 304.70 77.58 321.97 68.95 M 269.17 115.26 C 257.22 126.66 245.72 138.66 236.04 152.07 C 238.02 155.28 241.56 157.53 244.14 160.39 C 249.99 152.22 256.30 144.39 262.92 136.84 C 275.39 122.94 288.77 109.59 304.55 99.44 C 306.19 98.52 307.66 96.73 309.73 97.07 C 311.10 98.26 311.16 100.30 311.97 101.86 C 315.28 109.78 327.45 111.61 332.91 104.98 C 334.03 103.96 335.34 101.32 337.11 102.78 C 354.53 121.67 371.91 140.61 389.39 159.45 C 390.81 160.74 389.45 162.49 388.36 163.41 C 382.88 168.33 382.91 177.72 388.02 182.88 C 388.89 183.66 389.65 185.62 388.28 186.29 C 365.08 200.66 344.34 218.91 326.75 239.76 C 329.11 242.02 331.47 244.27 333.90 246.46 C 360.55 219.56 390.48 195.21 424.90 178.99 C 392.21 144.32 359.33 109.83 326.74 75.07 C 305.47 85.12 286.51 99.48 269.17 115.26 M 96.11 90.61 C 92.54 91.11 88.55 91.15 85.66 93.62 C 81.04 97.76 80.04 106.52 85.66 110.29 C 97.12 118.50 111.11 122.34 124.94 124.04 C 135.49 124.56 146.16 126.63 155.68 131.30 C 159.25 133.06 156.83 139.20 153.02 137.98 C 146.20 135.50 139.32 132.68 131.97 132.30 C 123.55 132.17 115.56 135.87 109.00 140.92 C 105.83 143.30 105.88 149.75 110.28 150.71 C 124.00 154.88 138.56 157.80 152.91 155.58 C 161.71 154.34 170.75 155.87 179.01 158.98 C 182.99 160.24 181.05 167.06 176.97 165.96 C 169.31 163.68 161.16 161.39 153.15 163.18 C 149.53 164.54 146.59 167.25 143.98 170.03 C 141.93 172.10 141.28 175.51 142.90 178.02 C 144.33 180.47 147.24 181.23 149.84 181.72 C 165.64 185.04 181.52 178.01 197.36 181.28 C 203.91 172.28 208.93 162.23 216.10 153.66 C 206.37 130.03 187.54 110.21 164.32 99.52 C 143.12 89.74 119.07 87.96 96.11 90.61 M 247.24 163.37 C 272.73 187.81 298.17 212.30 323.65 236.75 C 340.85 216.48 360.93 198.55 383.43 184.34 C 378.45 177.22 379.01 167.27 384.72 160.73 C 368.55 143.17 352.35 125.65 336.19 108.09 C 332.31 111.40 327.33 113.94 322.08 113.20 C 315.69 112.64 310.20 108.26 307.45 102.58 C 283.49 118.47 264.18 140.37 247.24 163.37 M 187.43 204.14 C 190.84 207.19 193.98 210.51 197.21 213.74 C 235.51 252.00 273.74 290.33 311.94 328.67 C 316.05 323.55 320.18 318.45 324.37 313.40 C 317.81 309.86 309.96 305.70 308.69 297.54 C 306.30 288.18 314.54 278.58 323.97 278.68 C 333.13 279.21 342.21 280.78 351.12 282.94 C 352.69 281.37 354.23 279.77 355.76 278.16 C 346.63 269.62 337.88 260.70 328.59 252.34 C 294.36 219.46 260.11 186.58 225.91 153.67 C 211.30 169.12 204.24 190.59 187.43 204.14 M 339.15 251.84 C 341.98 254.53 344.81 257.22 347.60 259.97 C 371.53 235.19 397.93 211.89 429.09 196.65 C 426.71 193.98 424.25 191.37 421.78 188.78 C 390.75 204.68 363.50 227.06 339.15 251.84 M 419.53 210.24 C 394.61 224.85 373.01 244.42 353.02 265.10 C 355.65 267.70 358.31 270.27 361.00 272.81 C 381.30 252.54 403.83 234.17 429.29 220.73 C 426.13 217.14 422.75 213.76 419.53 210.24 M 91.97 267.82 C 122.09 304.11 152.44 340.21 182.62 376.45 C 183.68 377.73 184.71 379.07 186.00 380.14 C 189.41 379.80 192.64 378.62 195.89 377.62 C 217.41 371.03 237.33 359.22 253.31 343.36 C 263.84 332.87 271.95 320.33 281.00 308.61 C 278.33 305.94 275.64 303.29 272.97 300.61 C 258.06 326.01 236.09 347.88 208.94 359.87 C 207.47 360.55 206.06 361.34 204.65 362.13 C 202.20 360.60 201.52 357.50 199.24 355.81 C 194.96 352.55 188.73 351.31 183.84 353.92 C 182.78 354.30 181.60 355.30 180.45 354.57 C 162.36 332.95 144.40 311.20 126.23 289.64 C 124.78 288.26 126.50 286.44 127.74 285.69 C 131.19 283.32 133.18 279.15 133.03 274.99 C 133.14 271.87 130.92 269.30 130.86 266.20 C 155.12 257.00 178.24 242.48 193.66 221.25 C 191.55 219.11 189.46 216.97 187.38 214.81 C 160.86 240.22 128.04 259.83 91.97 267.82 M 136.19 268.83 C 138.76 275.79 136.57 283.76 131.13 288.71 C 148.07 309.07 165.05 329.40 182.01 349.74 C 190.41 346.17 200.47 349.33 205.80 356.61 C 233.08 344.91 255.14 323.00 269.86 297.49 C 245.49 273.07 221.11 248.67 196.72 224.28 C 181.67 244.89 159.44 259.07 136.19 268.83 M 317.00 299.02 C 320.39 303.57 326.06 305.24 330.57 308.37 C 335.06 311.27 337.26 316.71 337.43 321.91 C 337.69 331.06 335.25 339.96 333.44 348.85 C 332.50 352.68 333.32 356.99 336.05 359.91 C 338.75 362.86 342.74 363.93 346.29 365.49 C 352.08 357.20 354.64 346.99 354.71 336.96 C 354.59 335.27 355.30 333.37 357.06 332.84 C 359.66 331.66 362.65 334.28 362.18 337.01 C 362.24 349.22 358.43 361.37 351.46 371.39 C 349.67 377.05 348.73 384.24 352.97 389.09 C 356.76 393.61 363.66 393.91 368.72 391.62 C 376.84 381.27 379.60 367.86 380.44 355.00 C 380.89 351.17 387.29 351.21 387.64 355.08 C 387.56 369.76 383.22 384.62 374.54 396.55 C 372.32 399.79 371.64 403.74 370.74 407.48 C 369.30 414.28 367.89 421.65 370.61 428.33 C 372.16 432.47 375.65 435.85 379.93 437.07 C 386.27 438.99 393.08 437.52 399.04 435.02 C 407.01 431.44 412.61 423.77 414.64 415.39 C 421.08 392.76 424.90 368.16 417.83 345.20 C 412.62 327.63 399.87 312.99 384.25 303.73 C 365.98 293.09 344.96 287.89 324.02 286.14 C 317.67 285.43 313.18 294.10 317.00 299.02 M 85.51 292.01 C 103.59 312.76 121.76 333.43 139.87 354.15 C 153.61 369.67 167.03 385.50 180.95 400.85 C 186.02 401.46 191.00 399.48 195.95 398.62 C 225.98 391.26 252.55 372.79 272.19 349.19 C 279.68 340.13 287.02 330.95 294.42 321.83 C 291.80 319.12 289.14 316.45 286.40 313.86 C 279.75 322.73 273.27 331.75 266.24 340.33 C 246.59 363.38 219.38 379.69 190.05 386.98 C 187.73 387.35 185.33 388.46 182.99 387.90 C 180.33 385.94 178.55 383.07 176.38 380.63 C 150.67 349.86 125.01 319.04 99.24 288.32 C 94.69 289.64 90.13 290.95 85.51 292.01 M 82.65 314.84 C 112.64 349.64 142.83 384.26 172.81 419.07 C 173.70 419.90 174.49 421.44 175.97 421.04 C 189.18 419.96 202.16 416.76 214.68 412.47 C 240.07 403.66 263.58 388.62 280.86 367.88 C 289.03 357.70 297.09 347.43 305.24 337.24 C 305.80 336.33 306.80 335.55 306.89 334.43 C 304.71 331.81 302.13 329.56 299.75 327.13 C 284.70 345.45 270.75 365.16 251.54 379.47 C 231.90 394.46 208.66 405.23 184.05 408.47 C 181.34 408.75 177.90 409.62 176.10 406.91 C 148.06 374.82 119.95 342.78 91.89 310.70 C 88.73 311.88 85.60 313.18 82.65 314.84 Z" />
  <path d=" M 166.43 267.73 C 168.36 266.02 170.31 264.32 172.26 262.63 C 174.15 264.77 176.00 266.96 177.84 269.15 C 181.25 267.24 184.98 265.60 188.99 265.80 C 194.61 265.73 199.58 268.94 203.44 272.76 C 201.74 274.44 200.28 276.51 198.26 277.77 C 195.89 276.31 193.76 274.29 190.94 273.74 C 188.17 272.96 185.47 274.26 182.91 275.15 C 187.40 280.64 192.09 285.97 196.75 291.31 C 201.98 288.84 207.74 286.40 213.63 287.63 C 223.86 290.01 230.68 301.67 227.76 311.75 C 226.83 315.33 224.48 318.25 222.14 321.02 C 223.53 322.63 224.92 324.25 226.32 325.87 C 224.37 327.60 222.39 329.30 220.39 330.97 C 219.01 329.27 217.60 327.59 216.16 325.94 C 212.48 328.20 208.39 330.17 203.96 330.05 C 197.43 330.11 191.54 326.48 187.16 321.88 C 188.81 320.15 190.47 318.41 192.11 316.67 C 194.97 319.08 198.16 321.50 202.02 321.84 C 205.20 322.26 208.25 321.10 211.17 320.00 C 205.90 313.89 200.71 307.71 195.34 301.69 C 190.07 304.08 184.13 306.30 178.33 304.47 C 170.21 301.73 164.59 292.57 166.46 284.07 C 167.20 280.28 169.49 277.08 171.89 274.16 C 170.05 272.03 168.22 269.90 166.43 267.73 M 176.89 295.18 C 180.49 298.58 185.54 296.35 189.48 294.91 C 185.25 289.97 181.05 285.00 176.72 280.15 C 172.85 284.26 172.10 291.46 176.89 295.18 M 202.68 298.26 C 207.41 303.99 212.34 309.54 217.16 315.19 C 218.76 313.03 220.50 310.80 220.91 308.06 C 222.04 302.85 218.41 296.92 213.08 295.94 C 209.44 295.35 205.98 296.97 202.68 298.26 Z" />
</svg>
