<svg width="512px" height="512px" fill="currentColor" viewBox="0 0 512 512" version="1.1" xmlns="http://www.w3.org/2000/svg">
<path d=" M 253.53 0.00 L 257.34 0.00 C 263.49 1.02 268.98 5.71 270.15 11.95 C 272.08 19.94 266.10 28.55 258.03 29.76 C 249.95 31.38 241.54 25.07 240.64 16.93 C 239.37 8.91 245.68 1.22 253.53 0.00 Z" />
<path d=" M 151.47 25.58 C 159.07 23.21 167.84 28.18 169.86 35.83 C 172.37 43.48 167.32 52.37 159.59 54.40 C 151.96 56.83 143.14 51.80 141.12 44.12 C 138.62 36.45 143.73 27.58 151.47 25.58 Z" />
<path d=" M 351.41 25.59 C 359.05 23.17 367.90 28.20 369.89 35.92 C 372.34 43.57 367.27 52.41 359.55 54.41 C 351.90 56.82 343.08 51.75 341.09 44.04 C 338.66 36.40 343.73 27.61 351.41 25.59 Z" />
<path d=" M 248.28 47.27 C 251.01 44.39 255.44 43.34 259.14 44.85 C 261.57 45.84 263.36 47.86 265.21 49.66 C 276.91 61.48 288.76 73.16 300.45 84.99 C 312.81 77.54 324.96 69.76 337.30 62.31 C 341.87 59.37 348.48 61.34 351.01 66.07 C 353.19 69.70 351.84 74.03 351.31 77.91 C 344.82 119.26 338.38 160.62 331.90 201.97 C 331.43 206.20 328.18 210.01 323.93 210.76 C 320.98 211.16 318.00 210.99 315.03 211.00 C 273.32 210.99 231.60 211.01 189.89 211.00 C 184.61 211.43 179.60 207.30 179.10 202.01 C 172.41 159.36 165.78 116.69 159.08 74.04 C 158.54 71.14 158.59 67.93 160.37 65.44 C 163.09 61.15 169.29 59.54 173.65 62.28 C 186.01 69.75 198.24 77.44 210.54 84.99 C 223.10 72.40 235.66 59.80 248.28 47.27 Z" />
<path d=" M 173.11 248.13 C 175.97 243.37 181.54 240.71 187.03 240.99 C 233.00 241.01 278.98 241.01 324.95 240.99 C 330.43 240.71 336.03 243.34 338.87 248.11 C 341.77 252.50 341.14 257.98 341.18 262.97 C 341.15 345.98 341.18 428.99 341.17 512.00 L 170.83 512.00 C 170.83 429.00 170.84 346.01 170.82 263.01 C 170.87 258.02 170.20 252.52 173.11 248.13 M 233.90 302.83 C 227.28 306.24 224.08 314.97 227.21 321.79 C 229.41 327.39 235.16 330.75 241.00 331.17 C 241.00 345.80 241.01 360.44 240.99 375.07 C 240.82 379.75 242.75 384.50 246.42 387.48 C 250.74 391.17 257.25 392.08 262.37 389.52 C 267.54 387.19 270.99 381.66 270.97 376.01 C 271.04 356.34 270.97 336.67 271.01 317.00 C 271.23 311.79 268.77 306.49 264.38 303.60 C 259.91 300.35 254.16 301.02 248.96 301.00 C 243.93 301.16 238.49 300.21 233.90 302.83 Z" />
<path d=" M 30.52 317.01 C 30.33 308.81 37.81 301.61 45.98 302.01 C 77.60 301.98 109.21 302.00 140.83 302.01 C 140.82 372.00 140.83 442.00 140.83 512.00 L 43.69 512.00 C 36.43 510.91 30.35 504.42 30.52 496.93 C 30.48 436.96 30.48 376.98 30.52 317.01 Z" />
<path d=" M 371.17 332.01 C 402.81 332.00 434.44 331.98 466.08 332.01 C 474.24 331.64 481.67 338.83 481.47 347.02 C 481.53 397.00 481.52 446.98 481.47 496.96 C 481.63 504.40 475.64 510.83 468.43 512.00 L 371.17 512.00 C 371.17 452.00 371.18 392.00 371.17 332.01 Z" />
</svg>
