<?xml version="1.0" encoding="utf-8"?>
<svg version="1.1" xmlns="http://www.w3.org/2000/svg" fill="currentColor" viewBox="0 0 1000 1000">
<g transform="translate(0.000000,512.000000) scale(0.100000,-0.100000)">
  <path d="M4196.1,4975.4c-482.5-132.1-702.7-331.3-723.8-656.8c-9.6-139.8-9.6-139.8-59.4-128.3c-224,55.5-419.3,86.2-576.3,86.2c-325.5,0-524.6-82.3-585.9-239.3c-40.2-105.3-15.3-185.7,90-308.3c42.1-47.9,68.9-97.6,63.2-113c-5.7-15.3-55.5-55.5-109.1-88.1c-55.5-32.5-105.3-70.8-113-82.3c-28.7-40.2-15.3-158.9,19.2-187.6c17.2-15.3,174.2-91.9,348.5-168.5c415.5-181.9,999.5-480.6,1120.1-570.6c53.6-40.2,97.7-90,101.5-113c7.7-51.7-55.5-176.2-164.7-321.7c-46-63.2-398.3-425.1-779.3-804.2c-741-735.3-823.4-825.3-1030.1-1139.3c-329.3-499.8-495.9-988-551.5-1608.4c-113-1281,367.6-2297.7,1338.4-2835.8c788.9-438.5,2014.3-582.1,3364.3-398.3c561,76.6,884.6,158.9,1187.1,304.5c484.4,231.7,980.4,706.6,1259.9,1202.5c298.7,534.2,425.1,1116.3,358.1,1669.7c-78.5,641.4-472.9,1499.3-988,2144.5c-72.8,90-407.9,442.3-744.9,785.1c-338.9,342.7-708.5,733.3-819.5,869.3c-229.8,277.6-231.7,283.4-176.2,528.5c63.2,268.1,107.2,337,428.9,675.9c126.4,134,250.8,279.5,273.8,325.5c55.5,107.2,57.4,294.9,1.9,415.5c-155.1,344.7-735.3,708.5-1129.7,708.5c-149.3,0-243.2-38.3-298.7-124.5l-40.2-61.3l-137.9,82.3C4801.2,5021.3,4527.3,5065.4,4196.1,4975.4z M4713.1,4680.5c65.1-21.1,201-86.2,300.6-147.4c281.5-170.4,438.5-162.8,517,26.8l26.8,67l107.2-11.5c153.2-15.3,469.1-174.3,616.5-310.2c128.3-120.6,203-252.8,185.7-327.4c-7.7-24.9-126.4-170.4-264.2-319.8c-137.9-149.4-279.6-315.9-315.9-371.5c-67-105.3-149.3-327.4-170.4-463.4l-13.4-80.4l-174.2,13.4c-444.2,38.3-930.6,11.5-1336.5-70.9l-187.6-36.4l-114.9,84.2c-201,149.4-718,421.2-1171.8,620.4l-88.1,38.3l46,91.9c24.9,49.8,46,114.9,46,145.5c0,74.7-49.8,185.7-107.2,247c-65.1,68.9-42.1,80.4,176.2,90c130.2,5.7,224-1.9,363.8-32.6c304.4-65.1,402.1-78.5,472.9-57.4c118.7,32.6,135.9,70.8,147.4,314c9.6,216.4,9.6,218.3,74.7,285.3c74.7,76.6,229.8,151.3,427,203C4456.5,4724.5,4565.6,4726.5,4713.1,4680.5z M5557.5,2446c126.4-11.5,128.3-13.4,197.2-107.2c210.6-281.5,518.9-618.5,1016.7-1116.3c764-762.1,972.7-1022.5,1256.1-1570.1c398.3-767.8,513.2-1336.5,388.7-1939.7c-149.4-729.5-675.9-1436.1-1338.4-1794.1c-199.1-107.2-375.3-168.5-652.9-227.9C5278-4550.6,4004.6-4520,3175.5-4230.8C2059.2-3842.1,1482.9-2940.3,1542.2-1667c36.4,817.6,275.7,1415,821.4,2046.9c99.6,116.8,396.4,415.5,660.6,666.3c474.9,448.1,712.3,697,850.2,886.5c80.4,109.1,187.6,325.5,187.6,375.3c0,38.3,59.4,57.4,315.9,101.5C4749.5,2472.8,5122.8,2484.3,5557.5,2446z"/><path d="M4751.4,849.1c-34.5-34.5-38.3-63.2-38.3-293V299.5l-95.7-21c-126.4-28.7-312.1-122.6-417.4-208.7c-296.8-243.2-386.8-675.9-210.6-1007.2c116.8-216.4,352.3-375.3,802.3-541.9c250.8-91.9,360-143.6,451.9-212.5c247-189.6,172.3-518.9-137.9-608.9c-90-26.8-160.9-30.7-352.3-23c-243.2,9.6-340.8,30.6-610.8,132.1c-145.5,53.6-135.9,63.2-206.8-227.9c-44-174.2-47.9-218.3-28.7-243.2c49.8-59.4,515.1-183.8,691.2-183.8h72.8l7.7-241.2c7.7-312.1,9.6-314,293-314c279.6,0,275.7-3.8,281.5,323.6l5.7,256.6l157,51.7c348.5,116.8,566.8,319.8,658.7,614.6c67,216.4,38.3,513.2-70.8,698.9c-111.1,187.6-381,367.6-764,505.5c-375.3,135.9-589.8,279.6-614.7,413.6c-26.8,141.7,59.4,283.4,206.8,342.7c178.1,70.8,513.2,53.6,796.6-40.2c193.4-65.1,208.7-61.3,233.6,36.4c11.5,44,38.3,143.6,59.4,220.2c21.1,78.5,34.5,151.3,30.6,164.7c-17.2,44.1-298.7,120.6-572.5,155.1l-91.9,11.5v229.8c0,304.5,0,304.5-287.2,304.5C4814.6,887.3,4785.8,883.5,4751.4,849.1z"/>
</g>
</svg>